<svg width="58" height="54" viewBox="0 0 58 54" fill="none" xmlns="http://www.w3.org/2000/svg">
<path d="M28.635 0.00195312C36.4711 0.00195312 43.5656 3.02388 48.7009 7.90955C53.8363 12.7952 57.0126 19.5448 57.0126 27C57.0126 34.4552 53.8363 41.2048 48.7009 46.0905C43.5656 50.9761 36.4711 53.9981 28.635 53.9981C20.799 53.9981 13.7044 50.9761 8.56913 46.0905C3.43381 41.2048 0.257507 34.4552 0.257507 27C0.257507 19.5448 3.43381 12.7952 8.56913 7.90955C13.7044 3.02388 20.799 0.00195312 28.635 0.00195312ZM22.7875 14.48C22.5718 13.9793 22.3954 13.4714 22.2861 12.9511C22.1485 12.2956 22.1187 11.6288 22.2243 10.9536C22.3291 10.2825 22.5696 9.60574 22.9727 8.92661C23.3567 8.27953 23.8524 7.67931 24.3463 7.0812C24.8283 6.49773 25.3089 5.91586 25.6134 5.38399C25.9014 4.88106 26.0603 4.3819 26.1401 3.92207C26.2204 3.45973 26.2205 3.03089 26.1914 2.6757C26.1593 2.28275 26.091 1.98956 26.0232 1.77486C22.1326 2.13513 18.4872 3.2914 15.2692 5.07057C15.2361 5.1041 15.1991 5.14243 15.1577 5.18626C14.962 5.39345 14.7082 5.68975 14.4644 6.05008C14.2849 6.31528 14.1104 6.61559 13.9681 6.94016C13.7953 7.33432 13.6687 7.76726 13.6142 8.21528C13.5659 8.61328 13.5748 9.02405 13.6595 9.4299C13.7503 9.86558 13.9282 10.2976 14.1942 10.7056C14.4551 11.106 14.8007 11.4862 15.2317 11.8278C15.6596 12.1671 16.184 12.475 16.7625 12.749C17.4239 13.0624 18.1348 13.3218 18.843 13.5277C19.5584 13.7358 20.3178 13.9018 21.0264 14.0566C21.6576 14.1944 22.2498 14.324 22.7875 14.48ZM29.6957 1.67417C30.0636 1.89851 30.4215 2.14298 30.7325 2.4018C31.2587 2.83979 31.6421 3.31089 31.9209 3.79882C32.2016 4.28994 32.3732 4.78814 32.4759 5.28133C32.5775 5.76917 32.6137 6.25924 32.5782 6.76751C32.5431 7.27351 32.4386 7.78824 32.2594 8.32684C31.9723 9.18964 31.4907 10.1187 31.0572 10.955L30.8339 11.3906C30.6056 11.8368 30.4109 12.2356 30.2694 12.5779C30.1751 12.8063 30.1018 13.0126 30.0548 13.1955C31.5739 12.0374 33.4242 11.3338 34.9317 10.761L34.9314 10.7598L35.1077 10.6928C35.8991 10.3915 36.5769 10.1265 37.1617 9.85674C37.7194 9.59953 38.19 9.33913 38.5941 9.03769C38.9863 8.74526 39.3261 8.40662 39.6062 8.0328C39.8854 7.66019 40.1044 7.25309 40.2555 6.82238C40.5687 5.93055 40.6094 4.89615 40.63 4.37082L40.6303 4.36306C37.322 2.7732 33.6177 1.8203 29.6957 1.67417ZM28.587 14.6015C28.4939 14.2974 28.3713 13.829 28.4658 13.2002C28.5189 12.8462 28.6416 12.4605 28.8164 12.0376C28.983 11.6346 29.1915 11.2056 29.4297 10.74L29.6591 10.2985C30.0636 9.51816 30.5129 8.65132 30.7698 7.87966C30.9127 7.44989 30.9952 7.05228 31.0214 6.67459C31.0475 6.29935 31.0199 5.93346 30.9435 5.5659C30.8681 5.20368 30.7468 4.84613 30.5534 4.50752C30.3579 4.16552 30.0852 3.83206 29.7067 3.51703C29.3017 3.17984 28.7685 2.85657 28.2545 2.57922C28.0766 2.4832 27.8961 2.39076 27.7215 2.30411C27.7318 2.38756 27.7408 2.4745 27.7482 2.56535C27.7847 3.0114 27.7834 3.55666 27.6786 4.16019C27.5735 4.76614 27.363 5.42539 26.981 6.09272C26.6035 6.75206 26.0892 7.37459 25.5735 7.99899C25.1052 8.566 24.6352 9.13504 24.328 9.65277C24.0271 10.1599 23.8474 10.666 23.7689 11.1684C23.691 11.6665 23.7144 12.165 23.8185 12.6607C24.0327 13.6808 24.5921 14.7171 25.1629 15.7538C25.3856 15.9631 25.6004 16.2019 25.8144 16.4783C26.1585 16.9227 26.5015 17.465 26.8153 18.0392C26.9846 17.3616 27.251 16.6887 27.6021 16.048C27.8796 15.5417 28.2101 15.0549 28.587 14.6015ZM25.2408 24.9294C25.1196 24.5809 24.9558 24.2133 24.7278 23.8922C24.5013 23.5733 24.1995 23.2883 23.7568 23.0172C23.2688 22.7183 22.6143 22.4348 21.7186 22.1445C21.079 21.9372 20.3698 21.7399 19.616 21.5303C17.9786 21.075 16.1405 20.5637 14.6194 19.8791C13.5173 19.3833 12.5857 18.7995 11.8222 18.1772C10.9583 17.473 10.3065 16.7181 9.86274 15.9813C9.42443 15.2537 9.1834 14.5381 9.10236 13.7742C9.02369 13.0329 9.09969 12.2677 9.29378 11.4155C9.48745 10.5652 9.80251 9.61351 10.1995 8.7034C10.064 8.82696 9.92971 8.95163 9.79707 9.07779C7.15471 11.5917 5.06486 14.6314 3.71571 18.0177C3.77811 18.0952 3.84743 18.1816 3.92473 18.2787L3.95269 18.3138C4.41052 18.889 5.18016 19.8561 6.41027 20.5582C7.04698 20.9216 7.82538 21.2276 8.69379 21.4877C9.59239 21.7568 10.572 21.9738 11.5848 22.1531C12.9888 22.4016 14.4558 22.5809 15.8528 22.7515C16.595 22.842 17.3192 22.9306 17.844 23.0019C18.8212 23.1347 19.734 23.2814 20.6403 23.4722C21.5479 23.6632 22.4199 23.8933 23.3023 24.1906C23.9408 24.4057 24.5882 24.6564 25.2408 24.9294ZM28.0579 24.7091C28.0172 24.8359 27.974 24.9593 27.9294 25.0783C27.8042 25.4128 27.6669 25.7151 27.5451 25.9587C27.7793 26.068 28.0142 26.1785 28.2493 26.2893C28.4513 26.1292 28.6566 25.9706 28.8648 25.8139C28.737 25.6778 28.5994 25.5139 28.4557 25.3174C28.3306 25.1465 28.1975 24.9454 28.0579 24.7091ZM26.6047 24.1488C26.656 23.9755 26.7001 23.7974 26.7323 23.6192C26.8035 23.2258 26.8183 22.8249 26.7689 22.3902C26.7169 21.9326 26.5962 21.4364 26.3991 20.8736C26.1919 20.2822 25.8937 19.605 25.5507 18.9506C25.2358 18.3499 24.8914 17.7876 24.5568 17.3555C24.2349 16.9399 23.9251 16.6471 23.5874 16.4295C23.2462 16.2096 22.854 16.0517 22.3763 15.9108C21.8921 15.7681 21.3053 15.6397 20.6784 15.5029C19.9622 15.3464 19.1946 15.1786 18.3913 14.945C17.585 14.7106 16.789 14.4214 16.0664 14.0792C15.3978 13.7625 14.7734 13.3919 14.2365 12.9662C13.6718 12.5187 13.2163 12.0165 12.8693 11.484C12.4999 10.917 12.2529 10.318 12.1271 9.71448C12.039 9.29241 12.0102 8.86863 12.0295 8.45283C11.8929 8.71707 11.7629 8.99162 11.6409 9.27143C11.2811 10.096 10.9956 10.9586 10.8201 11.7291C10.6581 12.4402 10.5926 13.0593 10.6531 13.629C10.7111 14.176 10.8902 14.6991 11.2181 15.2436C11.5799 15.8444 12.1176 16.465 12.8357 17.0503C13.4988 17.5908 14.3139 18.1005 15.285 18.5374C16.7086 19.1782 18.4754 19.6696 20.0494 20.1072C20.8517 20.3304 21.6071 20.5405 22.2192 20.7389C23.2405 21.0699 24.0057 21.4048 24.5994 21.7684C25.2383 22.1596 25.6812 22.5816 26.0221 23.0615C26.2718 23.4131 26.4598 23.7879 26.6047 24.1488ZM30.8812 26.2227C30.8426 26.2518 30.8039 26.2786 30.7661 26.3047L30.7649 26.303L30.7632 26.3041L30.7643 26.3058C30.7192 26.337 30.6748 26.3676 30.6305 26.3963L30.498 26.4896C29.3035 27.3365 28.187 28.2633 27.2369 29.1894C28.2407 30.1632 29.2221 31.1567 30.0522 32.2805C30.5446 32.9473 30.9803 33.6561 31.3699 34.403C31.7511 35.1334 32.0898 35.9073 32.3963 36.7191C32.8074 37.8084 33.1535 38.9525 33.4789 40.1138C33.587 39.9676 33.6976 39.8206 33.8106 39.6728C34.7442 38.4515 35.8567 37.1616 37.0127 35.9179C37.7138 35.1636 38.4279 34.43 39.1252 33.7421C39.1299 33.2366 39.1314 32.7306 39.1142 32.2212C39.0942 31.6335 39.0485 31.0465 38.9513 30.4621V30.4592C38.8543 29.8748 38.7019 29.2825 38.4889 28.6905C38.2875 28.1309 38.0336 27.5806 37.7231 27.0481C37.4311 26.5475 37.0863 26.056 36.7418 25.6158C36.3271 25.0859 35.9161 24.6354 35.6011 24.3355L35.5996 24.3369C35.3262 24.0767 35.1584 23.9617 35.0324 23.9042C34.7547 24.0237 34.4772 24.1498 34.1998 24.2834C33.0809 24.8225 31.9543 25.4878 30.8812 26.2227ZM43.7964 6.15621C43.9173 6.53755 44.0223 6.95775 44.1017 7.40055C44.2042 7.97193 44.2643 8.5908 44.2611 9.22291C44.2578 9.8919 44.1814 10.5679 43.9905 11.2739C43.7999 11.9784 43.4985 12.7055 43.0458 13.4756C42.579 14.2698 41.9467 15.1176 41.2133 15.8962C40.5407 16.6101 39.7844 17.2671 38.9925 17.7748C38.0571 18.3745 37.0962 18.7582 36.1711 19.1273L36.1717 19.1284C35.4965 19.3979 34.8411 19.6594 34.2785 19.9773C33.6663 20.3232 33.1201 20.7557 32.6708 21.221C32.2053 21.703 31.8496 22.2136 31.639 22.6916C31.4106 23.2097 31.3483 23.7135 31.3364 24.1378C32.0492 23.7049 32.7745 23.3077 33.4977 22.9592C35.7742 21.8625 37.9896 21.2615 40.156 20.6739C40.6501 20.54 41.1437 20.4061 41.4245 20.3274C42.6649 19.9801 43.8882 19.6046 44.9901 19.1785C46.0539 18.7671 46.9878 18.3148 47.6824 17.8053C48.3419 17.3216 48.7965 16.7756 49.107 16.209C49.4209 15.6359 49.5901 15.0392 49.6753 14.4627C49.8345 13.3855 49.7053 12.3386 49.5462 11.2949C48.9005 10.5178 48.2084 9.77743 47.4731 9.07788C46.3437 8.0034 45.1132 7.02463 43.7964 6.15621ZM29.7789 24.5247C29.7642 23.9107 29.7819 23.0667 30.198 22.1222C30.4779 21.4871 30.9348 20.825 31.5229 20.216C32.0699 19.6495 32.7363 19.1222 33.4846 18.6994C34.1523 18.3222 34.8489 18.0441 35.5671 17.7575H35.5701C36.4216 17.4179 37.306 17.0649 38.1194 16.5434C38.8109 16.1 39.4695 15.5284 40.0533 14.9087C40.7071 14.2145 41.2698 13.4604 41.6843 12.7552C42.0713 12.0968 42.3258 11.4879 42.4825 10.908C42.6389 10.3296 42.7015 9.77173 42.7043 9.21709C42.707 8.68888 42.6538 8.15523 42.5632 7.65027C42.4646 7.09996 42.3211 6.59421 42.1578 6.17477C42.1254 6.09168 42.0924 6.01214 42.0588 5.93609C41.9933 6.37128 41.8922 6.83936 41.7328 7.29291C41.5323 7.8643 41.2434 8.40225 40.876 8.89263C40.5111 9.3796 40.0668 9.82183 39.5526 10.2053C39.0493 10.5808 38.489 10.8931 37.8394 11.1928C37.217 11.4799 36.5104 11.7563 35.6877 12.0694L35.5114 12.1365H35.5084C33.9821 12.7164 32.076 13.4409 30.6866 14.632C29.987 15.2317 29.4079 15.9561 28.9819 16.7335C28.5521 17.5177 28.2769 18.3546 28.19 19.1698C28.1151 19.8724 28.1791 20.5654 28.3172 21.2086C28.5023 22.0707 28.8193 22.8435 29.1177 23.4368C29.3349 23.8687 29.5455 24.2066 29.7377 24.4693L29.7789 24.5247ZM3.9131 24.2246C3.556 24.0841 3.20472 23.9617 2.88542 23.937C2.66713 23.92 2.42828 23.9454 2.18046 23.9896C2.05759 24.9768 1.99427 25.9813 1.99427 27C1.99427 27.7564 2.02912 28.505 2.09737 29.2445C2.30787 29.198 2.55569 29.1542 2.85558 29.1145C3.40478 29.0419 4.15619 28.9796 4.9603 28.9676C5.59995 28.9581 6.27273 28.9812 6.90285 29.0571C7.15587 29.0876 7.39986 29.1261 7.63654 29.1712C7.06678 28.5439 6.53492 27.9043 6.03014 27.2577C5.30499 26.329 4.63824 25.3894 4.08165 24.4985C4.02436 24.4068 3.96813 24.3155 3.9131 24.2246ZM2.42089 22.4593C2.5996 22.4446 2.78086 22.441 2.96557 22.4529C2.90935 22.3286 2.85636 22.2059 2.80705 22.0856C2.7331 21.9051 2.66782 21.7303 2.60963 21.5605C2.54121 21.8581 2.47818 22.1578 2.42089 22.4593ZM5.57879 23.9866C5.59161 23.8554 5.60833 23.7256 5.63009 23.5973C5.72372 23.0451 5.89907 22.5562 6.10978 22.0945C5.93736 22.0098 5.77068 21.9217 5.6104 21.8302C4.93596 21.4453 4.38629 21.0086 3.93791 20.5847C4.0159 20.8891 4.12015 21.2094 4.26007 21.5511C4.52689 22.2027 4.92899 22.9497 5.42481 23.7433C5.47521 23.8241 5.52663 23.9052 5.57879 23.9866ZM7.53977 22.6827C7.37219 23.052 7.23623 23.4306 7.16857 23.8296C7.04807 24.5403 7.12083 25.4042 7.20746 26.2793L7.28171 26.3748C7.94926 27.2298 8.66906 28.0743 9.47071 28.8967C10.2681 29.7148 11.1437 30.5075 12.1254 31.2618C12.4243 31.4915 12.7341 31.7185 13.0503 31.9416C12.8485 31.3892 12.6585 30.8218 12.4884 30.2289C12.208 29.252 11.992 28.2425 11.7917 27.3068C11.7163 26.9543 11.6434 26.6141 11.531 26.1262C11.3905 25.5166 11.2537 24.9945 11.1354 24.5706C11.0023 24.0936 10.9043 23.7717 10.8391 23.5571L10.829 23.5239C9.91523 23.3502 9.03758 23.1469 8.22985 22.9049C7.99453 22.8345 7.76434 22.7604 7.53977 22.6827ZM9.93099 31.4221C8.91148 31.0407 7.88505 30.6686 6.70751 30.5266C6.15654 30.4603 5.5586 30.4402 4.9847 30.4488C4.26253 30.4595 3.57669 30.5169 3.06923 30.584C2.72149 30.63 2.47189 30.6789 2.2808 30.7295C2.47809 32.0022 2.77484 33.2442 3.16325 34.4479C3.52498 34.3041 3.95495 34.1513 4.50198 33.9833C5.21991 33.7627 6.13873 33.516 7.11837 33.3172C7.9069 33.1572 8.73897 33.0258 9.54641 32.9597C10.3226 32.8961 11.0808 32.8926 11.8282 32.9237C11.5979 32.7572 11.3707 32.5885 11.1485 32.4177C10.7241 32.0916 10.3189 31.7594 9.93099 31.4221ZM14.3846 34.6252C13.6314 34.5449 12.8784 34.4671 12.1309 34.4244C11.3334 34.3788 10.5198 34.3715 9.67459 34.4408C8.93048 34.5018 8.16564 34.6225 7.44189 34.7693C6.50657 34.9591 5.64448 35.19 4.97812 35.3947C4.4299 35.563 4.01263 35.7142 3.66587 35.8556C4.21429 37.2545 4.88852 38.5949 5.67598 39.8643C5.93217 39.7921 6.25697 39.6963 6.71075 39.5574L6.9049 39.4977C7.95042 39.1764 9.55065 38.6845 11.1663 38.4284C12.0134 38.2941 12.8676 38.2252 13.7148 38.214C14.5956 38.2024 15.4607 38.2543 16.296 38.3606C17.1175 38.4651 17.9022 38.6197 18.6678 38.7988C19.1524 38.9122 19.6126 39.0304 20.0633 39.1503C20.1143 38.8837 20.1697 38.6223 20.2299 38.3648L20.2351 38.3418L20.2354 38.3407C20.2428 38.3083 20.2501 38.2762 20.2579 38.2444C19.9612 38.0437 19.6593 37.842 19.3421 37.6368C18.841 37.3126 18.2269 36.9291 17.3872 36.4276L16.6736 36.005C15.9792 35.5939 15.1951 35.1299 14.3846 34.6252ZM19.8318 40.6313C19.3094 40.4907 18.7926 40.3556 18.2955 40.2393C17.5706 40.0697 16.839 39.9248 16.0946 39.8301C15.3264 39.7323 14.5346 39.6845 13.7331 39.6951C12.9766 39.7051 12.2029 39.7684 11.4227 39.8921C9.90962 40.132 8.3803 40.6021 7.38103 40.9092L7.18689 40.9688C6.93209 41.0469 6.71963 41.1109 6.53925 41.1643C7.49791 42.5153 8.5898 43.7736 9.79707 44.9222C12.6707 47.6562 16.198 49.7682 20.1366 51.0285C19.9209 49.688 19.7303 48.2971 19.644 46.698C19.5853 45.6057 19.5755 44.4154 19.6244 43.2259V43.223C19.6606 42.3414 19.7285 41.4639 19.8318 40.6313ZM12.5342 23.8108C12.5698 23.933 12.6066 24.0616 12.6434 24.1931C12.7731 24.6581 12.9187 25.2108 13.0573 25.8126C13.1172 26.073 13.2159 26.5335 13.318 27.0106C13.515 27.9315 13.7277 28.925 13.9902 29.8398C14.3475 31.0847 14.8163 32.2528 15.2918 33.416C16.0707 33.8999 16.827 34.3475 17.4979 34.7447L18.2176 35.173L18.3889 35.2756C18.0687 34.4051 17.8291 33.5354 17.7658 32.6669C17.7035 31.8134 17.8161 31.0058 17.9285 30.1988C18.0188 29.5509 18.1091 28.9028 18.0928 28.2741C18.0577 26.9245 17.5327 25.4671 17.2702 24.7381L17.1515 24.4083C16.6151 24.3381 16.1406 24.28 15.6574 24.221C14.6352 24.0961 13.5762 23.9667 12.5342 23.8108ZM18.8886 24.6579C19.1903 25.5222 19.6143 26.8825 19.6496 28.2393C19.669 28.9851 19.571 29.6878 19.4731 30.3905C19.3716 31.1189 19.2701 31.8478 19.3226 32.5682C19.4171 33.8654 20.0263 35.2806 20.6581 36.7005L20.6931 36.7237C20.9799 35.8632 21.3327 35.0209 21.7602 34.1538C22.2259 33.2091 22.7793 32.2396 23.4691 31.2568C24.1606 30.2716 24.9883 29.2728 26.0007 28.2722C26.3121 27.9642 26.6414 27.656 26.9855 27.3498C26.4396 27.0946 25.8934 26.8435 25.3464 26.6029C24.477 26.2207 23.6186 25.8718 22.7834 25.5904C21.9451 25.308 21.1347 25.0931 20.3046 24.9185C19.8496 24.8227 19.3796 24.7372 18.8886 24.6579ZM50.8604 20.8743C50.5837 20.3236 50.3003 19.7876 49.9586 19.385C49.7137 19.0962 49.4136 18.8474 49.0939 18.6127C48.95 18.7374 48.7971 18.8595 48.6348 18.9785C47.9698 19.4663 47.1535 19.8969 46.243 20.2847C46.3969 20.5207 46.5602 20.811 46.7393 21.193C46.9487 21.6394 47.1793 22.2145 47.3919 22.8158C47.5957 23.3926 47.7855 24.0002 47.9258 24.5473C48.04 24.9922 48.1211 25.3939 48.1819 25.7693C48.2554 25.691 48.3278 25.6126 48.3987 25.534C48.9879 24.8812 49.4968 24.2057 49.8977 23.4959C50.2937 22.7946 50.5856 22.0577 50.7765 21.262V21.2591C50.8069 21.1324 50.8349 21.0042 50.8604 20.8743ZM50.1177 17.4925C50.4465 17.7369 50.7649 18.0027 51.0565 18.3225C51.0397 17.6071 50.9733 16.8423 50.8759 16.0463C50.7724 16.3308 50.646 16.6144 50.4927 16.8943C50.3822 17.0962 50.2577 17.2959 50.1177 17.4925ZM51.6966 23.3567C51.8715 23.3005 52.0453 23.2373 52.2175 23.1648C52.5323 23.0321 52.8431 22.8665 53.1305 22.6899C53.4591 22.4881 53.7589 22.2692 54.0004 22.0672C54.227 21.8776 54.3897 21.7159 54.52 21.5685C54.5579 21.5256 54.5951 21.4818 54.6318 21.4373C54.1392 19.3447 53.3746 17.3496 52.375 15.4878C52.5182 16.5739 52.6128 17.6225 52.6173 18.6018C52.6223 19.6855 52.5169 20.6727 52.2967 21.5901C52.1477 22.2084 51.948 22.7946 51.6966 23.3567ZM54.982 23.2241C54.7016 23.4545 54.356 23.7034 53.9731 23.9388C53.6208 24.1552 53.2377 24.359 52.8465 24.5239C52.4299 24.6995 52.0043 24.8305 51.5747 24.9388C51.275 25.0143 50.9755 25.0778 50.6761 25.138C50.3479 25.6048 49.9813 26.057 49.5832 26.4982C48.9311 27.2208 48.2 27.9087 47.4168 28.5794C47.0336 28.9074 46.6296 29.238 46.2048 29.5808C46.5457 29.5611 46.8874 29.5417 47.2306 29.5224L47.2922 29.519C48.5116 29.4509 49.692 29.385 50.7907 29.0155C51.3558 28.8255 51.9102 28.557 52.4192 28.2686C52.9308 27.979 53.4223 27.6519 53.8376 27.3616C54.2589 27.0671 54.5799 26.8259 54.8502 26.6115C54.994 26.4976 55.1311 26.3855 55.265 26.2742C55.2343 25.2408 55.1388 24.2229 54.982 23.2241ZM46.7789 27.122C46.7512 26.8278 46.7211 26.5377 46.6822 26.2624C46.6235 25.8458 46.5411 25.3997 46.4117 24.8958C46.283 24.3941 46.1062 23.8288 45.9144 23.2862C45.7171 22.7283 45.5058 22.2002 45.3168 21.7972C45.1129 21.3624 44.9339 21.0771 44.7652 20.8531C43.8445 21.1756 42.8603 21.4715 41.8639 21.7504C41.2992 21.9085 40.9426 22.0053 40.5832 22.1027C39.2959 22.4518 37.9908 22.806 36.6821 23.2643L36.7046 23.2856V23.2885C37.0635 23.63 37.5284 24.1389 37.9933 24.733C38.3733 25.2185 38.7563 25.7649 39.0846 26.3278C39.4451 26.9461 39.7372 27.5779 39.9663 28.2143C40.2038 28.8741 40.3762 29.5497 40.4893 30.2299C40.5983 30.8823 40.6491 31.53 40.671 32.1748L40.6737 32.2628L40.8407 32.1093C42.6464 30.4565 43.0443 30.1771 44.6292 28.9051C45.2427 28.4125 45.8155 27.9528 46.3726 27.4758C46.5101 27.3581 46.6455 27.2402 46.7789 27.122ZM55.246 28.2088C55.0942 28.3208 54.9329 28.437 54.7596 28.5581C54.3327 28.8566 53.81 29.2027 53.213 29.5406C52.6138 29.8801 51.9647 30.195 51.3095 30.4153C50.0061 30.8536 48.7162 30.9257 47.3838 31.0001L47.3221 31.0036C46.337 31.0586 45.2859 31.1211 44.221 31.185C43.5109 31.7708 42.7481 32.4214 41.9215 33.178C40.8359 34.1716 39.6373 35.3489 38.4716 36.5868C38.6908 36.541 38.9146 36.5028 39.1444 36.4737C39.9665 36.3695 40.8118 36.3909 41.7597 36.4148C42.2343 36.4267 42.736 36.4395 43.2553 36.4368C44.0647 36.4327 44.9638 36.3906 45.8975 36.2884C46.6769 36.2031 47.4699 36.0752 48.2372 35.8915C49.045 35.6982 49.8206 35.4455 50.5273 35.1606C51.2847 34.8553 51.9697 34.5115 52.5357 34.1626C53.4737 33.5846 54.0957 32.979 54.6765 32.3699C54.9826 31.0197 55.1759 29.6295 55.246 28.2088ZM53.8965 35.0705C53.7356 35.1823 53.5655 35.2941 53.3844 35.4056C52.7476 35.7981 51.9793 36.184 51.1318 36.5256C50.3424 36.8437 49.4892 37.1229 48.6157 37.332C47.7786 37.5324 46.918 37.6714 46.0745 37.7637C45.1067 37.8695 44.1449 37.9134 43.2614 37.9179C42.7068 37.9207 42.2012 37.9079 41.7231 37.8959C40.8397 37.8736 40.052 37.8537 39.3458 37.9432C38.3527 38.069 37.4164 38.4289 36.4835 38.8028C35.9867 39.3868 35.5124 39.9712 35.0744 40.5442C34.1122 41.803 33.3392 42.9916 32.7285 44.1211C32.2586 44.9901 31.8835 45.8252 31.5907 46.6316C32.0749 46.4913 32.5972 46.3818 33.1904 46.3302C33.7945 46.2777 34.454 46.2844 35.1322 46.3364C35.872 46.3932 36.6423 46.5018 37.3931 46.6446C37.9178 46.7444 38.4327 46.8609 38.939 46.9755C39.7701 47.1634 40.579 47.3463 41.3248 47.4298C42.3233 47.5415 43.2913 47.492 43.9396 47.4588C44.0624 47.4525 44.1752 47.4467 44.3146 47.4415L44.3923 47.4389C45.4857 46.6747 46.5157 45.833 47.473 44.9223C50.3504 42.1847 52.5724 38.8237 53.8965 35.0705ZM32.3271 41.7788C31.9033 40.2123 31.4725 38.653 30.931 37.2188C30.6493 36.4723 30.333 35.7518 29.9718 35.0595C29.6192 34.3837 29.2239 33.7407 28.7762 33.1345C28.0271 32.12 27.1201 31.196 26.1859 30.2878C25.6492 30.8903 25.1792 31.4892 24.7634 32.0816C24.1194 32.9992 23.6038 33.9022 23.1705 34.7812C22.7403 35.6539 22.3896 36.5083 22.1073 37.3981C22.0277 37.649 21.9538 37.9022 21.8853 38.159L21.9761 38.2072H21.9792C22.2935 38.3746 22.7653 38.6273 23.2897 38.9544C23.8242 39.2878 24.4159 39.7003 24.9616 40.1842C25.5064 40.6673 25.9934 41.2119 26.454 41.8103C26.9003 42.3902 27.3246 43.0261 27.7547 43.7083C28.183 44.3874 28.6176 45.113 29.0012 45.8661C29.2639 46.3817 29.5035 46.9102 29.7029 47.4458C29.7516 47.2693 29.8037 47.0911 29.8596 46.9114C30.2047 45.8022 30.6896 44.649 31.3426 43.4415C31.6363 42.8983 31.9636 42.3444 32.3271 41.7788ZM41.9338 48.9666C41.678 48.9545 41.4147 48.935 41.1478 48.9051C40.2935 48.8095 39.4479 48.6182 38.5789 48.4217C38.0885 48.3108 37.5901 48.198 37.0878 48.1025C36.3882 47.9694 35.6794 47.869 35.0101 47.8176C34.3979 47.7706 33.8251 47.7626 33.3308 47.8055C32.8187 47.8501 32.3707 47.9488 31.955 48.0743C31.6636 48.1623 31.3654 48.2731 31.0653 48.3903C30.6788 50.0142 30.5904 51.4394 30.5421 52.2205L30.5384 52.2815C34.6677 52.0042 38.5373 50.8317 41.9338 48.9666ZM28.913 52.344C28.9017 51.5808 28.8751 50.0899 28.4628 48.6467C28.2553 47.92 27.9493 47.2024 27.597 46.5109C27.2339 45.798 26.8227 45.1117 26.4177 44.4693C26.0145 43.8299 25.6163 43.2333 25.1963 42.6874C24.7904 42.16 24.3661 41.6845 23.8993 41.2705C23.4333 40.8573 22.9117 40.4949 22.4349 40.1974C22.1082 39.9936 21.8032 39.8207 21.5493 39.6819C21.5193 39.8512 21.4911 40.0228 21.4648 40.1969C21.3165 41.1768 21.2244 42.2298 21.1812 43.2811C21.1344 44.4207 21.1439 45.5665 21.2009 46.6225C21.2985 48.4345 21.5371 49.9825 21.791 51.5011C23.975 52.0518 26.269 52.3457 28.635 52.3457C28.7278 52.3457 28.8204 52.3448 28.913 52.344Z" fill="url(#paint0_linear_17_67)"/>
<defs>
<linearGradient id="paint0_linear_17_67" x1="28.5481" y1="-0.0490951" x2="28.5481" y2="54.0982" gradientUnits="userSpaceOnUse">
<stop stop-color="#F8DBA1"/>
<stop offset="1" stop-color="#C29B69"/>
</linearGradient>
</defs>
</svg>
